<svg width="512" height="512" viewBox="0 0 512 512" fill="none" xmlns="http://www.w3.org/2000/svg">
<path fill-rule="evenodd" clip-rule="evenodd" d="M346 90C346 106.569 359.431 120 376 120C392.569 120 406 106.569 406 90V30C406 13.4312 392.569 0 376 0C359.431 0 346 13.4312 346 30V90ZM436 60H457C487.327 60 512 84.6729 512 115V182H0V115C0 84.6729 24.673 60 55 60H76V90C76 123.084 102.916 150 136 150C169.084 150 196 123.084 196 90V60H316V90C316 123.084 342.916 150 376 150C409.084 150 436 123.084 436 90V60ZM136 120C119.431 120 106 106.569 106 90V30C106 13.4312 119.431 0 136 0C152.569 0 166 13.4312 166 30V90C166 106.569 152.569 120 136 120ZM0 457V212H512V457C512 487.327 487.327 512 457 512H55C24.673 512 0 487.327 0 457ZM245.804 410.386C245.804 402.294 241.044 398.248 231.524 398.248H168.692L209.866 354.456C219.703 343.984 226.685 334.543 230.81 326.134C234.935 317.566 236.998 308.443 236.998 298.764C236.998 284.801 232.079 273.695 222.242 265.444C212.563 257.193 199.553 253.068 183.21 253.068C173.849 253.068 164.487 254.734 155.126 258.066C145.765 261.239 137.593 265.603 130.612 271.156C128.708 272.743 127.28 274.409 126.328 276.154C125.535 277.899 125.138 279.962 125.138 282.342C125.138 285.833 126.09 288.847 127.994 291.386C130.057 293.925 132.437 295.194 135.134 295.194C136.721 295.194 138.307 294.876 139.894 294.242C141.481 293.449 143.067 292.497 144.654 291.386C150.842 287.102 156.951 283.77 162.98 281.39C169.168 278.852 175.515 277.582 182.02 277.582C189.953 277.582 196.062 279.565 200.346 283.532C204.63 287.499 206.772 293.21 206.772 300.668C206.772 306.697 205.185 312.806 202.012 318.994C198.997 325.023 194.158 331.688 187.494 338.986L133.23 397.296C129.581 401.104 127.756 405.388 127.756 410.148C127.756 413.797 128.946 416.891 131.326 419.43C133.706 421.81 136.959 423 141.084 423H231.524C241.044 423 245.804 418.795 245.804 410.386ZM363.753 322.564C355.82 317.963 346.617 315.662 336.146 315.662C324.404 315.662 314.487 318.518 306.396 324.23V279.01H370.179C379.699 279.01 384.459 275.043 384.459 267.11C384.459 259.177 379.699 255.21 370.179 255.21H290.925C286.324 255.21 282.754 256.479 280.215 259.018C277.677 261.557 276.407 265.047 276.407 269.49V343.746C276.407 346.919 277.518 349.458 279.74 351.362C281.961 353.266 284.658 354.218 287.831 354.218C291.005 354.218 294.099 353.187 297.113 351.124C302.191 346.999 307.109 344.063 311.87 342.318C316.788 340.573 322.341 339.7 328.529 339.7C338.367 339.7 346.062 342.477 351.615 348.03C357.328 353.425 360.183 360.803 360.183 370.164C360.183 379.843 357.407 387.3 351.854 392.536C346.3 397.772 338.287 400.39 327.815 400.39C320.993 400.39 314.567 399.2 308.537 396.82C302.508 394.44 296.32 391.029 289.974 386.586C288.069 385.317 286.403 384.444 284.975 383.968C283.547 383.333 282.04 383.016 280.453 383.016C277.756 383.016 275.376 384.285 273.313 386.824C271.409 389.204 270.457 392.139 270.457 395.63C270.457 399.914 272.282 403.643 275.931 406.816C282.595 412.369 290.608 416.812 299.969 420.144C309.49 423.317 319.168 424.904 329.005 424.904C340.906 424.904 351.377 422.604 360.422 418.002C369.624 413.242 376.685 406.657 381.603 398.248C386.681 389.839 389.219 380.16 389.219 369.212C389.219 358.74 386.998 349.458 382.555 341.366C378.113 333.274 371.845 327.007 363.753 322.564Z" fill="#F05D7B"/>
</svg>
