<svg width="32" height="32" viewBox="0 0 32 32" fill="none" xmlns="http://www.w3.org/2000/svg">
<path d="M16 0C7.21187 0 0 7.21187 0 16C0 24.7881 7.21187 32 16 32C24.7881 32 32 24.7881 32 16C32 7.21187 24.7881 0 16 0ZM26.3125 16.9375C26.3125 19.0057 24.6307 20.6875 22.5625 20.6875C21.2954 20.6875 20.178 20.0524 19.4989 19.0877C18.6394 20.0607 17.3971 20.6875 16 20.6875C13.4154 20.6875 11.3125 18.5846 11.3125 16C11.3125 13.4154 13.4154 11.3125 16 11.3125C17.0592 11.3125 18.0266 11.6791 18.8125 12.2739V12.25H20.6875V16C20.6875 16.321 20.6544 16.6344 20.5926 16.9375H20.6875C20.6875 17.9711 21.5289 18.8125 22.5625 18.8125C23.5961 18.8125 24.4375 17.9711 24.4375 16.9375V16C24.4375 11.3473 20.6527 7.5625 16 7.5625C11.3473 7.5625 7.5625 11.3473 7.5625 16C7.5625 20.6527 11.3473 24.4375 16 24.4375C17.875 24.4375 19.6484 23.8369 21.1288 22.6998L22.2714 24.1866C20.4596 25.5773 18.2916 26.3125 16 26.3125C10.3137 26.3125 5.6875 21.6863 5.6875 16C5.6875 10.3137 10.3137 5.6875 16 5.6875C21.6863 5.6875 26.3125 10.3137 26.3125 16V16.9375Z" fill="#F05D7B"/>
</svg>
